<?xml version="1.0"?>
<svg xmlns="http://www.w3.org/2000/svg" id="outline" viewBox="0 0 512 512" width="512" height="512"><path d="M352,288H24a8.00008,8.00008,0,0,0-8,8V488a8.00008,8.00008,0,0,0,8,8H352a8.00008,8.00008,0,0,0,8-8V296A8.00008,8.00008,0,0,0,352,288Zm-8,192H32V304H344Z"/><path d="M72,464H262.7915a56.209,56.209,0,0,0,50.24659-8.77881l11.76171-8.82129a7.9995,7.9995,0,0,0,0-12.7998l-11.76171-8.82129A56.27409,56.27409,0,0,0,262.84082,416H72a24,24,0,0,0,0,48Zm231.43848-26.42139L306.667,440l-3.22851,2.42139A40.28141,40.28141,0,0,1,272,449.80151V430.19873A40.28068,40.28068,0,0,1,303.43848,437.57861ZM256,448H240V432h16ZM72,432H224v16H72a8,8,0,0,1,0-16Z"/><path d="M96,400a40,40,0,1,0-40-40A40.04552,40.04552,0,0,0,96,400Zm0-64a24,24,0,1,1-24,24A24.0275,24.0275,0,0,1,96,336Z"/><path d="M192,400a40,40,0,1,0-40-40A40.04552,40.04552,0,0,0,192,400Zm0-64a24,24,0,1,1-24,24A24.0275,24.0275,0,0,1,192,336Z"/><path d="M288,400a40,40,0,1,0-40-40A40.04552,40.04552,0,0,0,288,400Zm0-64a24,24,0,1,1-24,24A24.0275,24.0275,0,0,1,288,336Z"/><path d="M64,200H248v72h16V192a8.00222,8.00222,0,0,0-1.59961-4.7998l-48-64A8.0009,8.0009,0,0,0,208,120h-8V80h12.46777a7.98789,7.98789,0,0,1,7.58887,5.47021l4.35352,13.05958a7.99321,7.99321,0,0,0,10.12011,5.05957l24-8a7.99945,7.99945,0,0,0,4.89746-10.56055L255.47363,65.145A39.80793,39.80793,0,0,0,218.335,40H200V24a8.00008,8.00008,0,0,0-8-8H120a8.00008,8.00008,0,0,0-8,8v96h-8a8.0009,8.0009,0,0,0-6.40039,3.2002l-48,64A8.00222,8.00222,0,0,0,48,192v80H64ZM218.335,56a23.88453,23.88453,0,0,1,22.2832,15.08691l4.80274,12.00684-8.36133,2.78711-1.82324-5.47022A23.97044,23.97044,0,0,0,212.46777,64H200V56ZM184,32V80H128V32ZM128,96h56v24H128Zm-20,40h96l36,48H72Z"/><path d="M488,88H280a8.00008,8.00008,0,0,0-8,8v32a8.04,8.04,0,0,0,.0957,1.23486l22.5,144,15.8086-2.46972L289.34717,136H478.65283l-37.5,240H384v16h56v32H384v24h16a8.00076,8.00076,0,0,0,5.65723-2.34326L411.314,440H440v40H384v16h64a8.00008,8.00008,0,0,0,8-8V384.62231l39.9043-255.38745A8.04,8.04,0,0,0,496,128V96A8.00008,8.00008,0,0,0,488,88Zm-8,16v16H288V104Z"/></svg>
