<?xml version="1.0" encoding="iso-8859-1"?>
<!-- Generator: Adobe Illustrator 19.0.0, SVG Export Plug-In . SVG Version: 6.00 Build 0)  -->
<svg version="1.1" id="Capa_1" xmlns="http://www.w3.org/2000/svg" xmlns:xlink="http://www.w3.org/1999/xlink" x="0px" y="0px"
	 viewBox="0 0 512 512" style="enable-background:new 0 0 512 512;" xml:space="preserve">
<g>
	<g>
		<path d="M256,48h-48V8c-0.019-0.946-0.209-1.881-0.56-2.76c-0.064-0.227-0.144-0.449-0.24-0.664
			c-0.36-0.782-0.843-1.5-1.432-2.128l-0.168-0.12c-0.512-0.516-1.094-0.957-1.728-1.312c-0.136-0.096-0.32-0.128-0.488-0.216
			c-0.214-0.097-0.433-0.182-0.656-0.256c-0.813-0.313-1.673-0.486-2.544-0.512c-0.064,0-0.12,0-0.184,0H64
			c-0.064,0-0.12,0.04-0.184,0.04c-0.871,0.026-1.731,0.199-2.544,0.512c-0.222,0.06-0.441,0.133-0.656,0.216
			c-0.168,0.08-0.352,0.112-0.52,0.208c-0.623,0.36-1.194,0.804-1.696,1.32l-0.128,0.12c-0.6,0.627-1.097,1.345-1.472,2.128
			c-0.091,0.217-0.172,0.439-0.24,0.664C56.209,6.119,56.019,7.054,56,8v40H8c-4.418,0-8,3.582-8,8v288c0,4.418,3.582,8,8,8h248
			c4.418,0,8-3.582,8-8V56C264,51.582,260.418,48,256,48z M120,336H16V64h48c1.122-0.005,2.229-0.251,3.248-0.72l50.272,33.08
			c0.762,0.485,1.6,0.837,2.48,1.04V336z M120,56v14.352l-2.344,6.944L72,47.248V22.32l48.936,30.112
			C120.344,53.53,120.023,54.753,120,56z M92.264,16h79.472L132,40.456L92.264,16z M192,22.32v24.928l-45.656,30.048l-5.904-17.472
			l1.96-5.704c0.115-0.456,0.188-0.922,0.216-1.392L192,22.32z M248,336H136V94.664c1.429,1.918,3.688,3.038,6.08,3.016
			c1.564,0,3.094-0.459,4.4-1.32l50.272-33.08c1.019,0.469,2.126,0.715,3.248,0.72h48V336z"/>
	</g>
</g>
<g>
	<g>
		<path d="M232,120h-72c-4.418,0-8,3.582-8,8v96c0,4.418,3.582,8,8,8h72c4.418,0,8-3.582,8-8v-96C240,123.582,236.418,120,232,120z
			 M224,216h-56v-56h56V216z M224,144h-56v-8h56V144z"/>
	</g>
</g>
<g>
	<g>
		<path d="M504,0H280c-4.418,0-8,3.582-8,8v496c0,4.418,3.582,8,8,8h88c4.27,0.005,7.791-3.344,8-7.608L391.616,184h0.8L408,504.392
			c0.209,4.265,3.73,7.613,8,7.608h88c4.418,0,8-3.582,8-8V8C512,3.582,508.418,0,504,0z M288,16h64v16h-64V16z M384,168
			c-4.27-0.005-7.791,3.344-8,7.608L360.384,496H288V48h96V168z M368,32V16h48v16H368z M496,496h-72.384L408,175.608
			c-0.209-4.264-3.73-7.613-8-7.608V48h96V496z M496,32h-64V16h64V32z"/>
	</g>
</g>
<g>
	<g>
		<path d="M472,400c-4.418,0-8,3.582-8,8v8c0,4.418,3.582,8,8,8s8-3.582,8-8v-8C480,403.582,476.418,400,472,400z"/>
	</g>
</g>
<g>
	<g>
		<path d="M472,432c-4.418,0-8,3.582-8,8v8c0,4.418,3.582,8,8,8s8-3.582,8-8v-8C480,435.582,476.418,432,472,432z"/>
	</g>
</g>
<g>
	<g>
		<path d="M472,464c-4.418,0-8,3.582-8,8v8c0,4.418,3.582,8,8,8s8-3.582,8-8v-8C480,467.582,476.418,464,472,464z"/>
	</g>
</g>
<g>
	<g>
		<path d="M90.568,400.52c-1.698-0.272-3.41-0.446-5.128-0.52H42.56c-1.718,0.074-3.43,0.248-5.128,0.52
			C16.127,403.066,0.067,421.103,0,442.56V488c0,4.418,3.582,8,8,8h112c4.418,0,8-3.582,8-8v-45.44
			C127.93,421.104,111.872,403.069,90.568,400.52z M48,416h32v12H48V416z M112,480H16v-8h96V480z M112,456H16v-13.44
			c0.017-10.575,6.3-20.134,16-24.344V436c0,4.418,3.582,8,8,8h48c4.418,0,8-3.582,8-8v-17.784c9.701,4.21,15.983,13.769,16,24.344
			V456z"/>
	</g>
</g>
<g>
	<g>
		<path d="M226.568,400.52c-1.698-0.272-3.41-0.446-5.128-0.52h-42.88c-1.718,0.074-3.43,0.248-5.128,0.52
			c-21.305,2.546-37.365,20.583-37.432,42.04V488c0,4.418,3.582,8,8,8h112c4.418,0,8-3.582,8-8v-45.44
			C263.93,421.104,247.872,403.069,226.568,400.52z M184,416h32v12h-32V416z M248,480h-96v-8h96V480z M248,456h-96v-13.44
			c0.017-10.575,6.3-20.134,16-24.344V436c0,4.418,3.582,8,8,8h48c4.418,0,8-3.582,8-8v-17.784c9.701,4.21,15.983,13.769,16,24.344
			V456z"/>
	</g>
</g>
<g>
</g>
<g>
</g>
<g>
</g>
<g>
</g>
<g>
</g>
<g>
</g>
<g>
</g>
<g>
</g>
<g>
</g>
<g>
</g>
<g>
</g>
<g>
</g>
<g>
</g>
<g>
</g>
<g>
</g>
</svg>
